<?xml version="1.0" standalone="no"?>
<!DOCTYPE svg PUBLIC "-//W3C//DTD SVG 1.1//EN" "http://www.w3.org/Graphics/SVG/1.1/DTD/svg11.dtd">
<svg xmlns="http://www.w3.org/2000/svg" viewBox="0 0 888.92 678.24" width="888.9199829101562" height="678.239990234375"><defs><style>.cls-1{fill:#071a63;}</style></defs><g id="Camada_2" data-name="Camada 2"><g id="Camada_1-2" data-name="Camada 1"><path class="cls-1" d="M518,70c28.14,1.11,100.75,30.66,118.44,83.44,15.87,8.52,90.93,2.12,111.88,3.66,14.76,40.77,60.2,53.73,102.36,51.21,9.3,5.26,6.72,27.94,6.08,32.24l-173.47,25.3c-33.55-6.53-70.81-48.6-82.59-78-46.61,5.87-89-74.4-82.7-117.83M491.2,37.46c-6.75,29-7,66,3.76,89.78,13.85,39.37,46.18,83,85.8,91,23,36,54,70.58,101.8,79.61,19.32-2.8,186.52-27.21,201.94-29.45,6.65-36.22,10.86-76.2-26.3-92-40.46,2.7-75.92-.68-87.62-49.9-34.36-2.22-77.62.81-111.89-.68C622.22,64,553.76,36.06,491.2,37.46Z"/><circle class="cls-1" cx="717.64" cy="200.26" r="16.84"/><path class="cls-1" d="M600.52,73.27A43.38,43.38,0,0,1,613,81.41,79.63,79.63,0,0,1,624.76,51.2L661.59,115l-32.15-10c4.47,9.4,9.56,18.32,13.61,28,21.3-4.5,43.49-5.43,64.79-.83L631.56,0c-22.72,17.44-42.22,40.6-48.19,69.56A50,50,0,0,1,600.52,73.27Z"/><path class="cls-1" d="M610.76,564.66c-16.3,141.39-199.55,148.73-240.44,33.45l47.24-19c17.46,53.68,93.53,69.77,129.27,18.06a48,48,0,0,0,8.77-17.34.5.5,0,0,0,0-.13c7.51-26.79-10.42-54.81-37.21-60.09v-37.1c35-6.83,51.57-50,27.54-78.57-41.51-57.59-133.44-27.67-132,44.38h-52A124.41,124.41,0,1,1,599,500.77,124.52,124.52,0,0,1,610.76,564.66Z"/><path class="cls-1" d="M512.93,408.71c0,110.41-133,166-211.56,89.18-53.7,53.39-144.48,45.49-188.25-16.22L0,297.1H58.68c16.63,27.12,52.05,84.9,68.41,111.61h.11l23.2,37.85c24.83,44.81,89.63,49.8,120.91,8.77-22.55-36.8-49.95-81.51-72.54-118.35h58.68c21,34.24,51,83.57,72.58,117.64,42.56,55.84,132.36,25,130.89-45.91Z"/><path class="cls-1" d="M688.63,452H647.5a161,161,0,0,0-313.68-50.9l-26.3-42.9c.63-1.2,1.28-2.4,1.93-3.58a202.25,202.25,0,0,1,177.1-104.69C598.16,249.94,688.63,340.41,688.63,452Z"/></g></g></svg>