<?xml version="1.0" standalone="no"?>
<!DOCTYPE svg PUBLIC "-//W3C//DTD SVG 1.1//EN" "http://www.w3.org/Graphics/SVG/1.1/DTD/svg11.dtd">
<svg xmlns="http://www.w3.org/2000/svg" viewBox="0 0 881.38 187.77" width="881.3800048828125" height="187.77000427246094"><defs><style>.cls-1{fill:#ed1c24;}</style></defs><g id="Camada_2" data-name="Camada 2"><g id="Layer_1" data-name="Layer 1"><path class="cls-1" d="M773.55,112h16.81c-8.09,22.55-16.6,45.94-24.69,68.3-6.38,10.22-22.76,9.37-27.65.64L714.4,138.17l-17.55,49.56H679.19L701.86,126c5.53-17.46,35.31-19.59,43.6-.85l14.68,23.63Z"/><path class="cls-1" d="M606,178.61h0C628.54,184,655.47,123.87,631.8,121c-26.92-3-46,53-25.84,57.57Zm25.84-66.47c78.16,4.35,43.64,75.59-23.24,75.59-82.71,0-44.72-79.28,23.24-75.59Z"/><polygon class="cls-1" points="567.17 112.02 562.69 125.28 531.91 125.28 509.23 187.73 472.85 187.73 495.31 125.28 464.99 125.28 469.71 112.02 567.17 112.02"/><path class="cls-1" d="M452.1,112.05l-4.48,13.24H426.31c-11,0-21.31,1.57-21.31,7.62,0,11.45,51.36.9,40.16,30.53-7,17.74-29.17,24.23-51.82,24.23H353.86L359,174.43h26.69c9.43,0,24.9,2.47,24.9-7.84,0-8.53-20.86-5.4-35.88-13-12.13-6.51-9-17.95-1.14-26.47,13-13.91,34.78-15,52.49-15Z"/><path class="cls-1" d="M356.18,112.05l-17.37,48c-8.46,23.89-28.86,28.23-48.4,27.58-25.17-.65-47.31-8.24-40.58-27.8l16.93-47.76h36.68L285,163.3c-3.27,9.11,4.55,11.72,12.8,11.72,13.9,0,21.7-6.73,24.74-15l17.58-48Z"/><path class="cls-1" d="M169.24,179.48h0c22.21-.21,44.42-55.55,19.38-57.73-24.83-2-46.16,59.69-19.38,57.73Zm20.47-67.32c81.23,2,47.68,76.47-23.09,75.6-76.42-.66-47-77.34,23.09-75.6Z"/><polygon class="cls-1" points="125.2 112.01 97.4 187.73 65.58 187.73 77.62 154.41 43.57 154.41 31.52 187.73 0 187.73 27.51 112.01 59.03 112.01 47.58 144.74 81.63 144.74 93.53 112.01 125.2 112.01"/><path class="cls-1" d="M836.47,85.1h0a39.43,39.43,0,1,1,39.26-39.42A39.48,39.48,0,0,1,836.47,85.1ZM836,0A45.55,45.55,0,0,0,803.6,77.66h-.14L836,110.25l32.26-32.59A45.65,45.65,0,0,0,836,0Z"/><path class="cls-1" d="M823.7,50a6.32,6.32,0,0,0,0,12.64,6.32,6.32,0,0,0,0-12.64Z"/><path class="cls-1" d="M851.73,42.6a6.47,6.47,0,0,0-6.38,6.4,6.34,6.34,0,0,0,6.38,6.25A6.22,6.22,0,0,0,858,49a6.35,6.35,0,0,0-6.25-6.4Z"/><path class="cls-1" d="M851.73,59.13h0a10.14,10.14,0,1,1,10-10.13,10.1,10.1,0,0,1-10,10.13Zm-11-1.66h0a2,2,0,0,1-2.5-1.11l-2.78-9.44c-3.33-.56-8.32-1.11-8.32-1.11-6-.7-3.47-4-3.47-4a34,34,0,0,1,8-12.08v-.14a1.61,1.61,0,0,1,2.36-.28l6.25,6.24,7.35-2.22a1.29,1.29,0,0,1,1.68,1,1.6,1.6,0,0,1-1,1.81l-8.47,2.64a1.48,1.48,0,0,1-1.1,0c0-.14-.14-.14-.14-.41L835.07,35c-1.52,2.64-3.87,6.39-3.87,6.39a19.89,19.89,0,0,1,4.43,1,3.54,3.54,0,0,1,3.2,2.36l2.63,8.89c1,3.47-.69,3.89-.69,3.89Zm-17.07,9h0a10.19,10.19,0,0,1-10.14-10.14,10.14,10.14,0,1,1,20.27,0A10.29,10.29,0,0,1,823.7,66.5Zm13.87-44.86h0a3.91,3.91,0,0,1,4,3.89,4.06,4.06,0,0,1-4,4.17,4,4,0,0,1-4-4.17,3.83,3.83,0,0,1,4-3.89ZM836.47,10A35.56,35.56,0,1,0,872,45.67,35.64,35.64,0,0,0,836.47,10Z"/></g></g></svg>